<svg width="75" height="75" viewBox="0 0 75 75" fill="none" xmlns="http://www.w3.org/2000/svg">
  <!-- Fist with impact lines — extracted from AdobeStock_540860495.ai -->
  <!-- Flipped vertically to correct orientation, stroke outline style -->
  <g transform="translate(0,75) scale(1,-1)" fill="none" stroke="black" stroke-width="2.2" stroke-linecap="round" stroke-linejoin="round">
    <!-- Main fist outline + arm -->
    <path d="M49.57 35.94C49.40 36.11 49.25 36.36 49.20 36.60C48.54 40.25 47.91 43.92 47.25 47.57C46.48 51.87 41.79 53.78 38.41 51.19C37.93 50.81 37.47 50.40 37.01 50.01C34.06 53.43 28.50 52.39 26.89 48.06C25.31 49.16 23.59 49.44 21.79 48.82C20.00 48.21 18.83 46.90 18.30 45.21C17.44 45.42 16.65 45.75 15.85 45.78C12.54 45.94 10.03 43.06 10.57 39.79C11.03 37.03 11.52 34.28 12.02 31.52C12.24 30.27 12.33 28.98 13.06 27.87C13.14 27.74 13.07 27.51 13.05 27.33C12.92 26.37 12.70 25.43 12.66 24.48C12.44 19.50 14.17 15.25 17.64 11.70C17.94 11.39 18.06 11.09 18.06 10.67C18.05 6.95 18.05 7.32 18.06 5.13C18.06 4.51 18.55 4.01 19.17 4.01C19.79 4.01 20.28 4.52 20.28 5.13C20.28 8.11 20.28 7.24 20.29 11.29C20.29 11.93 20.12 12.44 19.63 12.88C19.11 13.36 18.61 13.89 18.17 14.44C15.41 17.82 14.43 21.68 15.04 26.01C17.96 24.97 20.29 25.65 21.95 28.30C24.70 26.11 28.47 26.68 30.42 29.80C30.70 29.56 30.97 29.32 31.23 29.09C30.95 28.79 30.70 28.54 30.46 28.27C29.64 27.37 28.73 26.53 28.03 25.55C27.12 24.27 27.24 22.89 28.28 21.72C28.82 21.11 29.49 20.61 30.15 20.11C30.41 19.90 30.50 19.77 30.39 19.43C30.08 18.41 29.89 17.38 29.82 16.34C29.78 15.70 30.29 15.15 30.94 15.15L30.94 15.15C31.52 15.15 32.01 15.61 32.05 16.20C32.11 17.03 32.26 17.87 32.50 18.72C32.57 18.96 32.58 19.21 32.97 19.22C34.72 19.24 36.32 19.78 37.85 20.59C40.29 21.88 42.45 23.57 44.64 25.22C44.83 25.37 44.96 25.64 45.02 25.88C45.13 26.37 44.94 26.78 44.50 27.03C44.05 27.30 43.62 27.22 43.19 26.91C41.63 25.78 40.09 24.59 38.47 23.55C37.36 22.84 36.15 22.22 34.91 21.77C32.94 21.06 31.24 21.60 30.03 23.07C29.59 23.61 29.56 23.92 29.96 24.48C30.23 24.85 30.52 25.20 30.83 25.51C34.09 28.77 37.35 32.02 40.61 35.27C42.53 37.18 45.16 37.18 47.08 35.27C48.29 34.06 49.50 32.85 50.70 31.63C51.77 30.56 52.88 29.51 53.91 28.38C55.38 26.75 55.37 24.18 53.88 22.68C50.92 19.69 47.94 16.72 44.93 13.78C44.47 13.32 44.29 12.87 44.29 12.24C44.30 7.89 44.29 8.39 44.29 5.15C44.29 4.54 44.77 4.03 45.38 4.01C46.00 4.00 46.51 4.50 46.51 5.12C46.51 8.21 46.51 7.47 46.52 11.62C46.52 11.87 46.61 12.20 46.77 12.36C48.64 14.27 50.53 16.15 52.41 18.04C53.56 19.19 54.77 20.27 55.81 21.51C57.95 24.09 57.62 27.84 55.14 30.34C53.28 32.21 51.42 34.07 49.57 35.94Z"/>
    <!-- Finger 1 -->
    <path d="M17.93 27.79C16.30 27.48 14.84 28.50 14.52 30.22C13.92 33.49 13.35 36.76 12.78 40.03C12.74 40.23 12.74 40.44 12.73 40.55C12.72 42.17 13.83 43.43 15.32 43.56C16.81 43.69 18.14 42.69 18.41 41.21C19.00 37.90 19.60 34.59 20.17 31.28C20.47 29.59 19.50 28.10 17.93 27.79Z"/>
    <!-- Finger 2 -->
    <path d="M25.53 29.22C24.01 29.22 22.63 30.31 22.35 31.82C21.66 35.59 20.99 39.35 20.35 43.13C20.04 44.96 21.33 46.59 23.25 46.89C24.89 47.16 26.55 45.87 26.85 44.13C27.50 40.42 28.17 36.70 28.79 32.98C29.13 30.96 27.58 29.20 25.53 29.22Z"/>
    <!-- Finger 3 -->
    <path d="M37.34 35.13C35.83 33.69 34.38 32.19 32.90 30.71C31.88 31.27 31.25 32.11 31.05 33.22C30.31 37.23 29.60 41.24 28.91 45.26C28.52 47.51 29.86 49.44 31.97 49.76C33.97 50.07 35.82 48.76 36.18 46.74C36.77 43.47 37.30 40.19 37.93 36.93C38.08 36.14 37.90 35.66 37.34 35.13Z"/>
    <!-- Finger 4 -->
    <path d="M40.04 37.74C39.82 38.98 39.61 40.13 39.40 41.30C39.11 42.94 38.82 44.58 38.54 46.23C38.23 48.10 39.44 49.78 41.30 50.09C43.05 50.37 44.70 49.14 45.02 47.34C45.53 44.44 46.05 41.54 46.56 38.64C46.58 38.57 46.57 38.49 46.58 38.35C44.31 39.28 42.17 39.07 40.04 37.74Z"/>
    <!-- Impact lines -->
    <path d="M43.20 59.16C43.83 59.16 44.34 59.67 44.34 60.30L44.34 69.86C44.34 70.49 43.83 71.00 43.20 71.00C42.57 71.00 42.06 70.49 42.06 69.86L42.06 60.30C42.06 59.67 42.57 59.16 43.20 59.16Z"/>
    <path d="M34.68 56.37C35.12 55.92 35.85 55.92 36.29 56.37C36.74 56.81 36.74 57.54 36.29 57.99L29.54 64.74C29.09 65.19 28.37 65.19 27.92 64.74C27.47 64.30 27.47 63.57 27.92 63.12L34.68 56.37Z"/>
    <path d="M50.19 56.37C50.64 55.92 51.37 55.92 51.81 56.37L58.57 63.12C59.01 63.57 59.01 64.30 58.57 64.74C58.12 65.19 57.39 65.19 56.95 64.74L50.19 57.99C49.74 57.54 49.74 56.81 50.19 56.37Z"/>
  </g>
</svg>
