<svg width="75" height="75" viewBox="0 0 75 75" fill="none" xmlns="http://www.w3.org/2000/svg">
<circle cx="37.5" cy="37.5" r="37.5" fill="#0B56CF"/>
<path d="M57 46.3572C57 52.2236 52.2324 56.9911 46.3661 56.9911V54.3326C50.7969 54.3326 54.3415 50.788 54.3415 46.3572H57ZM18.0089 28.6339C18.0089 22.7676 22.7764 18 28.6428 18V20.6585C24.212 20.6585 20.6673 24.2031 20.6673 28.6339H18.0089ZM30.4151 23.8841L22.2802 32.0368C16.5733 37.7437 16.5733 47.013 22.2802 52.7198C27.987 58.4267 37.2563 58.4267 42.9632 52.7198L55.4935 40.1541C56.362 39.3211 56.362 37.9209 55.4935 37.0525C54.6251 36.184 53.2249 36.184 52.3565 37.0525L44.5228 44.8862L43.2645 43.6278L54.8555 32.0368C55.7239 31.1684 55.7239 29.7682 54.8555 28.8998C53.987 28.0314 52.5692 28.0314 51.683 28.8998L41.3858 39.2679L40.1629 37.9741L52.3388 25.7628C53.2072 24.8943 53.2072 23.4942 52.3388 22.6258C51.4703 21.7573 50.0702 21.7573 49.2018 22.6258L36.9905 34.8371L35.7321 33.5965L45.4799 23.8841C46.3661 23.0157 46.3661 21.6155 45.4799 20.7471C44.5937 19.8787 43.2113 19.8787 42.3429 20.7471L28.8378 34.2522C31 37.0348 30.805 41.0402 28.2529 43.6101L26.9945 42.3517C29.0682 40.2781 29.0682 36.9107 26.9945 34.8371L26.3742 34.2168L33.5876 27.0034C34.456 26.135 34.456 24.7348 33.5876 23.8664C32.7014 23.0157 31.3013 23.0157 30.4151 23.8841Z" fill="white"/>
</svg>
