<svg width="70" height="70" viewBox="0 0 70 70" fill="none" xmlns="http://www.w3.org/2000/svg">
<circle cx="35" cy="35" r="35" fill="#0B56CF"/>
<path d="M40.4796 41.7483C41.344 42.2871 41.6082 43.4251 41.0695 44.2896L41.0049 44.3932C38.3171 48.706 32.6415 50.0228 28.3287 47.335C24.0162 44.6471 22.6987 38.9723 25.3864 34.6596L25.4509 34.556C25.9897 33.6916 27.1277 33.4274 27.9922 33.9661L40.4796 41.7483Z" fill="white" stroke="#0B56CF" stroke-width="0.69684"/>
<rect x="35.5781" y="44.6579" width="9.05789" height="4.18705" rx="2.09353" transform="rotate(-44.5695 35.5781 44.6579)" fill="white" stroke="#0B56CF" stroke-width="0.69684"/>
<rect x="32.9921" y="41.3435" width="10.2385" height="4.18705" rx="2.09353" transform="rotate(-44.5695 32.9921 41.3435)" fill="white" stroke="#0B56CF" stroke-width="0.69684"/>
<rect x="30.3178" y="38.1159" width="10.7532" height="4.18705" rx="2.09353" transform="rotate(-44.5695 30.3178 38.1159)" fill="white" stroke="#0B56CF" stroke-width="0.69684"/>
<rect x="27.6435" y="34.8894" width="11.795" height="4.18705" rx="2.09353" transform="rotate(-44.5695 27.6435 34.8894)" fill="white" stroke="#0B56CF" stroke-width="0.69684"/>
<path d="M35.6025 32.5757C36.0364 32.5757 36.3887 32.9279 36.3887 33.3618C36.3885 35.3652 34.7641 36.9887 32.7607 36.9888H24.3096V35.0151C24.3096 33.6681 25.402 32.5757 26.749 32.5757H35.6025Z" fill="white" stroke="#0B56CF" stroke-width="0.69684"/>
<line x1="35.9401" y1="21.0754" x2="35.9401" y2="25.93" stroke="white" stroke-width="0.92912" stroke-linecap="round"/>
<line x1="39.7546" y1="28.9734" x2="45.2373" y2="28.9734" stroke="white" stroke-width="0.92912" stroke-linecap="round"/>
<line x1="27.1145" y1="28.9734" x2="32.5971" y2="28.9734" stroke="white" stroke-width="0.92912" stroke-linecap="round"/>
<line x1="0.46456" y1="-0.46456" x2="5.64091" y2="-0.46456" transform="matrix(0.742581 -0.669756 0.742581 0.669756 38.5127 27.4395)" stroke="white" stroke-width="0.92912" stroke-linecap="round"/>
<line x1="0.46456" y1="-0.46456" x2="5.64091" y2="-0.46456" transform="matrix(-0.742581 -0.669756 -0.742581 0.669756 33.5972 27.4395)" stroke="white" stroke-width="0.92912" stroke-linecap="round"/>
<path d="M7.80014 20.5704C8.25009 19.6739 8.77166 19.1167 9.36484 18.8988C9.95486 18.6794 10.5873 18.739 11.262 19.0776C11.5662 19.2303 11.8346 19.4225 12.0672 19.6543C12.2967 19.8845 12.4667 20.1582 12.5772 20.4754C12.6893 20.7894 12.722 21.1509 12.6754 21.5598C12.6257 21.9671 12.4736 22.4242 12.2192 22.931L11.902 23.5631L14.3731 24.8032L13.6337 26.2763L6.68639 22.7896L7.80014 20.5704ZM8.96897 21.2522L8.6327 21.9222L10.695 22.9573L10.9383 22.4726C11.0766 22.197 11.1602 21.9395 11.1891 21.7002C11.218 21.4609 11.1827 21.2468 11.0831 21.058C10.9835 20.8693 10.8118 20.7136 10.5678 20.5912C10.2257 20.4195 9.92455 20.3874 9.66442 20.4948C9.40112 20.6006 9.16931 20.8531 8.96897 21.2522Z" fill="#2B263A"/>
<path d="M7.80014 20.5704C8.25009 19.6739 8.77166 19.1167 9.36484 18.8988C9.95486 18.6794 10.5873 18.739 11.262 19.0776C11.5662 19.2303 11.8346 19.4225 12.0672 19.6543C12.2967 19.8845 12.4667 20.1582 12.5772 20.4754C12.6893 20.7894 12.722 21.1509 12.6754 21.5598C12.6257 21.9671 12.4736 22.4242 12.2192 22.931L11.902 23.5631L14.3731 24.8032L13.6337 26.2763L6.68639 22.7896L7.80014 20.5704ZM8.96897 21.2522L8.6327 21.9222L10.695 22.9573L10.9383 22.4726C11.0766 22.197 11.1602 21.9395 11.1891 21.7002C11.218 21.4609 11.1827 21.2468 11.0831 21.058C10.9835 20.8693 10.8118 20.7136 10.5678 20.5912C10.2257 20.4195 9.92455 20.3874 9.66442 20.4948C9.40112 20.6006 9.16931 20.8531 8.96897 21.2522Z" fill="white"/>
<path d="M12.7233 57.0445L11.537 55.597L12.7795 51.946L11.9514 51.724L9.80481 53.4832L8.76008 52.2084L14.7723 47.2813L15.817 48.5562L13.0659 50.8108C13.2534 50.7991 13.4398 50.7861 13.6251 50.7718C13.8104 50.7574 13.9968 50.7444 14.1844 50.7328L17.5627 50.6863L18.7221 52.101L14.3426 52.1842L12.7233 57.0445Z" fill="#2B263A"/>
<path d="M12.7233 57.0445L11.537 55.597L12.7795 51.946L11.9514 51.724L9.80481 53.4832L8.76008 52.2084L14.7723 47.2813L15.817 48.5562L13.0659 50.8108C13.2534 50.7991 13.4398 50.7861 13.6251 50.7718C13.8104 50.7574 13.9968 50.7444 14.1844 50.7328L17.5627 50.6863L18.7221 52.101L14.3426 52.1842L12.7233 57.0445Z" fill="white"/>
<path d="M19.5978 17.8342L14.9326 11.6166L16.251 10.6274L20.0993 15.7563L22.6212 13.864L23.4381 14.9527L19.5978 17.8342Z" fill="#2B263A"/>
<path d="M19.5978 17.8342L14.9326 11.6166L16.251 10.6274L20.0993 15.7563L22.6212 13.864L23.4381 14.9527L19.5978 17.8342Z" fill="white"/>
<path d="M24.6717 64.4036L22.8068 63.4493L22.4751 56.6741L22.4325 56.6523C22.3337 56.8765 22.2325 57.1014 22.1289 57.3272C22.0254 57.5529 21.9218 57.7786 21.8183 58.0044C21.7163 58.2269 21.6136 58.4511 21.51 58.6768L19.8438 61.9333L18.5327 61.2624L22.0735 54.3424L23.9242 55.2894L24.2778 62.0101L24.3109 62.0271C24.4144 61.8093 24.5155 61.5923 24.6142 61.376C24.7129 61.1597 24.8116 60.9435 24.9104 60.7272C25.0122 60.5126 25.1141 60.2979 25.216 60.0833L26.8919 56.8079L28.2125 57.4836L24.6717 64.4036Z" fill="#2B263A"/>
<path d="M24.6717 64.4036L22.8068 63.4493L22.4751 56.6741L22.4325 56.6523C22.3337 56.8765 22.2325 57.1014 22.1289 57.3272C22.0254 57.5529 21.9218 57.7786 21.8183 58.0044C21.7163 58.2269 21.6136 58.4511 21.51 58.6768L19.8438 61.9333L18.5327 61.2624L22.0735 54.3424L23.9242 55.2894L24.2778 62.0101L24.3109 62.0271C24.4144 61.8093 24.5155 61.5923 24.6142 61.376C24.7129 61.1597 24.8116 60.9435 24.9104 60.7272C25.0122 60.5126 25.1141 60.2979 25.216 60.0833L26.8919 56.8079L28.2125 57.4836L24.6717 64.4036Z" fill="white"/>
<path d="M42.4179 13.9305L42.4388 11.9964L39.737 11.1414L38.6414 12.7354L36.9484 12.1996L41.9189 5.58595L43.8401 6.19394L44.1109 14.4663L42.4179 13.9305ZM42.4808 10.5597L42.4889 8.66622C42.4915 8.54063 42.4924 8.37919 42.4916 8.1819C42.4953 7.98231 42.4978 7.78048 42.4992 7.57644C42.505 7.37008 42.5129 7.19228 42.523 7.04303C42.4453 7.17089 42.3435 7.32826 42.2174 7.51516C42.0958 7.69974 41.9791 7.87472 41.8673 8.04009C41.7554 8.20547 41.6754 8.32327 41.6272 8.39351L40.5495 9.94855L42.4808 10.5597Z" fill="#2B263A"/>
<path d="M42.4179 13.9305L42.4388 11.9964L39.737 11.1414L38.6414 12.7354L36.9484 12.1996L41.9189 5.58595L43.8401 6.19394L44.1109 14.4663L42.4179 13.9305ZM42.4808 10.5597L42.4889 8.66622C42.4915 8.54063 42.4924 8.37919 42.4916 8.1819C42.4953 7.98231 42.4978 7.78048 42.4992 7.57644C42.505 7.37008 42.5129 7.19228 42.523 7.04303C42.4453 7.17089 42.3435 7.32826 42.2174 7.51516C42.0958 7.69974 41.9791 7.87472 41.8673 8.04009C41.7554 8.20547 41.6754 8.32327 41.6272 8.39351L40.5495 9.94855L42.4808 10.5597Z" fill="white"/>
<path d="M45.8515 56.5331C45.5737 56.6826 45.3565 56.8699 45.1999 57.095C45.0448 57.3154 44.9485 57.5665 44.911 57.8483C44.8766 58.1284 44.8992 58.4323 44.9788 58.7597C45.0585 59.0872 45.1949 59.4304 45.388 59.7894C45.6484 60.2731 45.9303 60.6548 46.2337 60.9343C46.5385 61.209 46.866 61.3688 47.2163 61.4138C47.5648 61.4557 47.9389 61.3691 48.3384 61.1541C48.6162 61.0046 48.8772 60.8239 49.1214 60.6119C49.3687 60.3983 49.6252 60.1456 49.8907 59.8537L50.5459 61.071C50.3103 61.3588 50.0601 61.6082 49.7952 61.8191C49.5321 62.0332 49.2179 62.2385 48.8527 62.4351C48.1473 62.8147 47.4886 62.982 46.8767 62.937C46.2662 62.8871 45.7107 62.6588 45.21 62.252C44.7076 61.8421 44.2674 61.286 43.8895 60.5838C43.6106 60.0656 43.4255 59.5534 43.3342 59.0471C43.2428 58.5408 43.2481 58.0569 43.35 57.5955C43.4519 57.1341 43.6564 56.7101 43.9635 56.3234C44.2706 55.9367 44.6833 55.604 45.2014 55.3251C45.5416 55.142 45.9054 55.0026 46.2926 54.9069C46.6813 54.8064 47.072 54.7471 47.4648 54.7289L47.6316 56.1607C47.3101 56.1768 46.9955 56.2092 46.6877 56.2581C46.3799 56.307 46.1012 56.3987 45.8515 56.5331Z" fill="#2B263A"/>
<path d="M45.8515 56.5331C45.5737 56.6826 45.3565 56.8699 45.1999 57.095C45.0448 57.3154 44.9485 57.5665 44.911 57.8483C44.8766 58.1284 44.8992 58.4323 44.9788 58.7597C45.0585 59.0872 45.1949 59.4304 45.388 59.7894C45.6484 60.2731 45.9303 60.6548 46.2337 60.9343C46.5385 61.209 46.866 61.3688 47.2163 61.4138C47.5648 61.4557 47.9389 61.3691 48.3384 61.1541C48.6162 61.0046 48.8772 60.8239 49.1214 60.6119C49.3687 60.3983 49.6252 60.1456 49.8907 59.8537L50.5459 61.071C50.3103 61.3588 50.0601 61.6082 49.7952 61.8191C49.5321 62.0332 49.2179 62.2385 48.8527 62.4351C48.1473 62.8147 47.4886 62.982 46.8767 62.937C46.2662 62.8871 45.7107 62.6588 45.21 62.252C44.7076 61.8421 44.2674 61.286 43.8895 60.5838C43.6106 60.0656 43.4255 59.5534 43.3342 59.0471C43.2428 58.5408 43.2481 58.0569 43.35 57.5955C43.4519 57.1341 43.6564 56.7101 43.9635 56.3234C44.2706 55.9367 44.6833 55.604 45.2014 55.3251C45.5416 55.142 45.9054 55.0026 46.2926 54.9069C46.6813 54.8064 47.072 54.7471 47.4648 54.7289L47.6316 56.1607C47.3101 56.1768 46.9955 56.2092 46.6877 56.2581C46.3799 56.307 46.1012 56.3987 45.8515 56.5331Z" fill="white"/>
<path d="M32.052 12.4108L27.6792 13.37L26.0136 5.77737L30.3864 4.81812L30.6758 6.13723L27.913 6.74331L28.2787 8.41038L30.8494 7.84645L31.1387 9.16556L28.568 9.72949L28.9975 11.6874L31.7604 11.0813L32.052 12.4108Z" fill="#2B263A"/>
<path d="M32.052 12.4108L27.6792 13.37L26.0136 5.77737L30.3864 4.81812L30.6758 6.13723L27.913 6.74331L28.2787 8.41038L30.8494 7.84645L31.1387 9.16556L28.568 9.72949L28.9975 11.6874L31.7604 11.0813L32.052 12.4108Z" fill="white"/>
<path d="M55.9901 27.5575L54.179 23.4635L61.2877 20.3188L63.0988 24.4129L61.8638 24.9592L60.7195 22.3724L59.1587 23.0629L60.2234 25.4697L58.9884 26.0161L57.9237 23.6092L56.0906 24.4201L57.2349 27.0069L55.9901 27.5575Z" fill="#2B263A"/>
<path d="M55.9901 27.5575L54.179 23.4635L61.2877 20.3188L63.0988 24.4129L61.8638 24.9592L60.7195 22.3724L59.1587 23.0629L60.2234 25.4697L58.9884 26.0161L57.9237 23.6092L56.0906 24.4201L57.2349 27.0069L55.9901 27.5575Z" fill="white"/>
<path d="M38.3121 61.967C38.3121 62.566 38.2376 63.1119 38.0888 63.6046C37.9399 64.0938 37.713 64.5156 37.4082 64.87C37.1069 65.2245 36.7241 65.4974 36.2598 65.6888C35.7954 65.8767 35.246 65.9706 34.6115 65.9706C33.9771 65.9706 33.4277 65.8767 32.9633 65.6888C32.499 65.4974 32.1144 65.2245 31.8096 64.87C31.5083 64.5156 31.2832 64.092 31.1343 63.5993C30.9855 63.1066 30.911 62.559 30.911 61.9564C30.911 61.1518 31.0422 60.4517 31.3045 59.8562C31.5703 59.2572 31.9779 58.7929 32.5273 58.4632C33.0768 58.1336 33.775 57.9688 34.6222 57.9688C35.4658 57.9688 36.1587 58.1336 36.7011 58.4632C37.2469 58.7929 37.651 59.2572 37.9133 59.8562C38.1791 60.4553 38.3121 61.1589 38.3121 61.967ZM32.639 61.967C32.639 62.5093 32.7063 62.9772 32.841 63.3707C32.9793 63.7606 33.1937 64.0618 33.4844 64.2745C33.775 64.4837 34.1508 64.5882 34.6115 64.5882C35.0794 64.5882 35.4587 64.4837 35.7493 64.2745C36.04 64.0618 36.2509 63.7606 36.3821 63.3707C36.5167 62.9772 36.5841 62.5093 36.5841 61.967C36.5841 61.1518 36.4317 60.5102 36.1268 60.0423C35.822 59.5744 35.3205 59.3405 34.6222 59.3405C34.1578 59.3405 33.7786 59.4468 33.4844 59.6595C33.1937 59.8686 32.9793 60.1699 32.841 60.5634C32.7063 60.9533 32.639 61.4212 32.639 61.967Z" fill="#2B263A"/>
<path d="M38.3121 61.967C38.3121 62.566 38.2376 63.1119 38.0888 63.6046C37.9399 64.0938 37.713 64.5156 37.4082 64.87C37.1069 65.2245 36.7241 65.4974 36.2598 65.6888C35.7954 65.8767 35.246 65.9706 34.6115 65.9706C33.9771 65.9706 33.4277 65.8767 32.9633 65.6888C32.499 65.4974 32.1144 65.2245 31.8096 64.87C31.5083 64.5156 31.2832 64.092 31.1343 63.5993C30.9855 63.1066 30.911 62.559 30.911 61.9564C30.911 61.1518 31.0422 60.4517 31.3045 59.8562C31.5703 59.2572 31.9779 58.7929 32.5273 58.4632C33.0768 58.1336 33.775 57.9688 34.6222 57.9688C35.4658 57.9688 36.1587 58.1336 36.7011 58.4632C37.2469 58.7929 37.651 59.2572 37.9133 59.8562C38.1791 60.4553 38.3121 61.1589 38.3121 61.967ZM32.639 61.967C32.639 62.5093 32.7063 62.9772 32.841 63.3707C32.9793 63.7606 33.1937 64.0618 33.4844 64.2745C33.775 64.4837 34.1508 64.5882 34.6115 64.5882C35.0794 64.5882 35.4587 64.4837 35.7493 64.2745C36.04 64.0618 36.2509 63.7606 36.3821 63.3707C36.5167 62.9772 36.5841 62.5093 36.5841 61.967C36.5841 61.1518 36.4317 60.5102 36.1268 60.0423C35.822 59.5744 35.3205 59.3405 34.6222 59.3405C34.1578 59.3405 33.7786 59.4468 33.4844 59.6595C33.1937 59.8686 32.9793 60.1699 32.841 60.5634C32.7063 60.9533 32.639 61.4212 32.639 61.967Z" fill="white"/>
<path d="M52.9503 18.2186C52.667 18.5821 52.3327 18.8294 51.9474 18.9605C51.5621 19.0916 51.1437 19.098 50.6921 18.9798C50.2433 18.8637 49.7785 18.6182 49.2976 18.2435C49.0851 18.0779 48.8877 17.9016 48.7054 17.7145C48.5259 17.5297 48.3632 17.3377 48.2173 17.1386C48.0764 16.9389 47.9536 16.7331 47.8491 16.5213L48.7903 15.3136C48.9809 15.6688 49.1924 16.0201 49.4249 16.3676C49.6574 16.7151 49.9274 17.0087 50.2349 17.2483C50.4474 17.4139 50.6398 17.5189 50.8119 17.5632C50.9869 17.6097 51.1419 17.6069 51.2769 17.5548C51.4118 17.5027 51.5283 17.4138 51.6264 17.288C51.7462 17.1342 51.7969 16.9625 51.7785 16.7728C51.76 16.5832 51.6969 16.37 51.5893 16.1333C51.4845 15.8988 51.3613 15.6388 51.2198 15.3533C51.1295 15.175 51.0376 14.973 50.9439 14.7472C50.8524 14.5187 50.7857 14.2756 50.7436 14.0182C50.7016 13.7607 50.709 13.4946 50.7659 13.2199C50.8277 12.9445 50.9676 12.667 51.1855 12.3875C51.4709 12.0212 51.7988 11.7735 52.1692 11.6442C52.5396 11.5149 52.9333 11.5027 53.3504 11.6076C53.7725 11.7118 54.196 11.9296 54.6209 12.2608C54.9397 12.5091 55.2136 12.7833 55.4427 13.0832C55.6768 13.3825 55.8974 13.7252 56.1043 14.1112L54.8973 14.795C54.7043 14.4603 54.5199 14.175 54.3442 13.9392C54.1706 13.7006 53.9678 13.4909 53.7358 13.31C53.5736 13.1836 53.4145 13.1023 53.2585 13.0661C53.1046 13.0271 52.9613 13.0323 52.8285 13.0816C52.6979 13.1281 52.5847 13.2128 52.4888 13.3358C52.3755 13.4812 52.3216 13.6369 52.327 13.8029C52.3374 13.9683 52.3919 14.1636 52.4906 14.3888C52.592 14.6161 52.7234 14.8915 52.8847 15.215C53.0824 15.6072 53.2284 15.9705 53.3229 16.3048C53.4224 16.6384 53.4472 16.9612 53.3975 17.2729C53.3499 17.5819 53.2009 17.8971 52.9503 18.2186Z" fill="#2B263A"/>
<path d="M52.9503 18.2186C52.667 18.5821 52.3327 18.8294 51.9474 18.9605C51.5621 19.0916 51.1437 19.098 50.6921 18.9798C50.2433 18.8637 49.7785 18.6182 49.2976 18.2435C49.0851 18.0779 48.8877 17.9016 48.7054 17.7145C48.5259 17.5297 48.3632 17.3377 48.2173 17.1386C48.0764 16.9389 47.9536 16.7331 47.8491 16.5213L48.7903 15.3136C48.9809 15.6688 49.1924 16.0201 49.4249 16.3676C49.6574 16.7151 49.9274 17.0087 50.2349 17.2483C50.4474 17.4139 50.6398 17.5189 50.8119 17.5632C50.9869 17.6097 51.1419 17.6069 51.2769 17.5548C51.4118 17.5027 51.5283 17.4138 51.6264 17.288C51.7462 17.1342 51.7969 16.9625 51.7785 16.7728C51.76 16.5832 51.6969 16.37 51.5893 16.1333C51.4845 15.8988 51.3613 15.6388 51.2198 15.3533C51.1295 15.175 51.0376 14.973 50.9439 14.7472C50.8524 14.5187 50.7857 14.2756 50.7436 14.0182C50.7016 13.7607 50.709 13.4946 50.7659 13.2199C50.8277 12.9445 50.9676 12.667 51.1855 12.3875C51.4709 12.0212 51.7988 11.7735 52.1692 11.6442C52.5396 11.5149 52.9333 11.5027 53.3504 11.6076C53.7725 11.7118 54.196 11.9296 54.6209 12.2608C54.9397 12.5091 55.2136 12.7833 55.4427 13.0832C55.6768 13.3825 55.8974 13.7252 56.1043 14.1112L54.8973 14.795C54.7043 14.4603 54.5199 14.175 54.3442 13.9392C54.1706 13.7006 53.9678 13.4909 53.7358 13.31C53.5736 13.1836 53.4145 13.1023 53.2585 13.0661C53.1046 13.0271 52.9613 13.0323 52.8285 13.0816C52.6979 13.1281 52.5847 13.2128 52.4888 13.3358C52.3755 13.4812 52.3216 13.6369 52.327 13.8029C52.3374 13.9683 52.3919 14.1636 52.4906 14.3888C52.592 14.6161 52.7234 14.8915 52.8847 15.215C53.0824 15.6072 53.2284 15.9705 53.3229 16.3048C53.4224 16.6384 53.4472 16.9612 53.3975 17.2729C53.3499 17.5819 53.2009 17.8971 52.9503 18.2186Z" fill="white"/>
<path d="M60.6962 51.9314L59.486 53.359L55.6709 52.7944L55.6017 53.6488L57.7188 55.4435L56.653 56.7008L50.7236 51.6743L51.7894 50.417L54.5027 52.7171C54.4575 52.5347 54.4111 52.3537 54.3636 52.174C54.3161 51.9944 54.2697 51.8133 54.2245 51.631L53.5704 48.3162L54.7531 46.9211L55.6237 51.2139L60.6962 51.9314Z" fill="#2B263A"/>
<path d="M60.6962 51.9314L59.486 53.359L55.6709 52.7944L55.6017 53.6488L57.7188 55.4435L56.653 56.7008L50.7236 51.6743L51.7894 50.417L54.5027 52.7171C54.4575 52.5347 54.4111 52.3537 54.3636 52.174C54.3161 51.9944 54.2697 51.8133 54.2245 51.631L53.5704 48.3162L54.7531 46.9211L55.6237 51.2139L60.6962 51.9314Z" fill="white"/>
</svg>
